<?xml version="1.0" encoding="UTF-8" standalone="no"?>
<!-- Created with Inkscape (http://www.inkscape.org/) -->

<svg
   xmlns:dc="http://purl.org/dc/elements/1.1/"
   xmlns:cc="http://creativecommons.org/ns#"
   xmlns:rdf="http://www.w3.org/1999/02/22-rdf-syntax-ns#"
   xmlns:svg="http://www.w3.org/2000/svg"
   xmlns="http://www.w3.org/2000/svg"
   xmlns:sodipodi="http://sodipodi.sourceforge.net/DTD/sodipodi-0.dtd"
   xmlns:inkscape="http://www.inkscape.org/namespaces/inkscape"
   width="1920"
   height="540"
   viewBox="0 0 457.2 128.5875"
   version="1.1"
   id="svg8"
   inkscape:version="0.92.3 (2405546, 2018-03-11)"
   sodipodi:docname="codeBG.svg"
   inkscape:export-filename="C:\Users\Donald T Bradfield\Pictures\vectors\dtbLandingPageTESTTTT.png"
   inkscape:export-xdpi="96"
   inkscape:export-ydpi="96">
  <defs
     id="defs2" />
  <sodipodi:namedview
     id="base"
     pagecolor="#ffffff"
     bordercolor="#666666"
     borderopacity="1.0"
     inkscape:pageopacity="0.0"
     inkscape:pageshadow="2"
     inkscape:zoom="0.35"
     inkscape:cx="975.69683"
     inkscape:cy="602.8492"
     inkscape:document-units="mm"
     inkscape:current-layer="layer1"
     showgrid="false"
     showborder="true"
     inkscape:window-width="1920"
     inkscape:window-height="1001"
     inkscape:window-x="-9"
     inkscape:window-y="-9"
     inkscape:window-maximized="1"
     units="px"
     fit-margin-top="0"
     fit-margin-left="0"
     fit-margin-right="0"
     fit-margin-bottom="0"
     inkscape:snap-global="false" />
  <metadata
     id="metadata5">
    <rdf:RDF>
      <cc:Work
         rdf:about="">
        <dc:format>image/svg+xml</dc:format>
        <dc:type
           rdf:resource="http://purl.org/dc/dcmitype/StillImage" />
        <dc:title></dc:title>
      </cc:Work>
    </rdf:RDF>
  </metadata>
  <g
     inkscape:label="Layer 1"
     inkscape:groupmode="layer"
     id="layer1"
     transform="translate(960.73844,109.04248)">
    <rect
       style="opacity:1;fill:#f98a2c;fill-opacity:1;stroke:#78c9ea;stroke-width:0.27000001;stroke-linecap:square;stroke-miterlimit:4;stroke-dasharray:none;stroke-opacity:1"
       id="rect1200"
       width="672.19281"
       height="240.84644"
       x="-1022.8361"
       y="-165.6362" />
    <path
       sodipodi:type="star"
       style="opacity:1;fill:#78c9ea;fill-opacity:1;stroke:#142a35;stroke-width:4.00859976;stroke-linecap:square;stroke-miterlimit:4;stroke-dasharray:none;stroke-opacity:1"
       id="path1098"
       sodipodi:sides="3"
       sodipodi:cx="-948.96838"
       sodipodi:cy="4.4368876"
       sodipodi:r1="76.979637"
       sodipodi:r2="38.489815"
       sodipodi:arg1="0.52359878"
       sodipodi:arg2="1.5707963"
       inkscape:flatsided="true"
       inkscape:rounded="0.19"
       inkscape:randomized="0"
       d="m -882.30206,42.926707 c -12.6666,21.939196 -120.66604,21.939196 -133.33264,-10e-7 -12.6666,-21.939197 41.33311,-115.469456 66.66632,-115.469455 25.3332,0 79.33292,93.530259 66.66632,115.469456 z"
       inkscape:transform-center-y="-11.017711" />
    <path
       sodipodi:type="star"
       style="opacity:1;fill:#78c9ea;fill-opacity:1;stroke:#142a35;stroke-width:4.00859976;stroke-linecap:square;stroke-miterlimit:4;stroke-dasharray:none;stroke-opacity:1"
       id="path1098-6"
       sodipodi:sides="3"
       sodipodi:cx="-804.05231"
       sodipodi:cy="4.4368876"
       sodipodi:r1="76.979637"
       sodipodi:r2="38.489815"
       sodipodi:arg1="0.52359878"
       sodipodi:arg2="1.5707963"
       inkscape:flatsided="true"
       inkscape:rounded="0.19"
       inkscape:randomized="0"
       d="m -737.38599,42.926707 c -12.6666,21.939196 -120.66604,21.939196 -133.33264,-10e-7 -12.6666,-21.939197 41.33312,-115.469456 66.66632,-115.469455 25.33321,0 79.33293,93.530259 66.66632,115.469456 z"
       inkscape:transform-center-y="-11.017711" />
    <path
       sodipodi:type="star"
       style="opacity:1;fill:#78c9ea;fill-opacity:1;stroke:#142a35;stroke-width:4.00859976;stroke-linecap:square;stroke-miterlimit:4;stroke-dasharray:none;stroke-opacity:1"
       id="path1098-1"
       sodipodi:sides="3"
       sodipodi:cx="-659.13623"
       sodipodi:cy="4.4368876"
       sodipodi:r1="76.979637"
       sodipodi:r2="38.489815"
       sodipodi:arg1="0.52359878"
       sodipodi:arg2="1.5707963"
       inkscape:flatsided="true"
       inkscape:rounded="0.19"
       inkscape:randomized="0"
       d="m -592.46991,42.926707 c -12.6666,21.939196 -120.66604,21.939196 -133.33264,-10e-7 -12.6666,-21.939197 41.33312,-115.469456 66.66632,-115.469455 25.3332,0 79.33292,93.530259 66.66632,115.469456 z"
       inkscape:transform-center-y="-11.017711" />
    <path
       sodipodi:type="star"
       style="opacity:1;fill:#78c9ea;fill-opacity:1;stroke:#142a35;stroke-width:4.00859976;stroke-linecap:square;stroke-miterlimit:4;stroke-dasharray:none;stroke-opacity:1"
       id="path1098-2"
       sodipodi:sides="3"
       sodipodi:cx="-514.22021"
       sodipodi:cy="4.4368876"
       sodipodi:r1="76.979637"
       sodipodi:r2="38.489815"
       sodipodi:arg1="0.52359878"
       sodipodi:arg2="1.5707963"
       inkscape:flatsided="true"
       inkscape:rounded="0.19"
       inkscape:randomized="0"
       d="m -447.55389,42.926707 c -12.6666,21.939196 -120.66605,21.939196 -133.33265,-10e-7 -12.6666,-21.939197 41.33312,-115.469456 66.66633,-115.469455 25.3332,0 79.33292,93.530259 66.66632,115.469456 z"
       inkscape:transform-center-y="-11.017711" />
    <path
       sodipodi:type="star"
       style="opacity:1;fill:#78c9ea;fill-opacity:1;stroke:#142a35;stroke-width:4.00859976;stroke-linecap:square;stroke-miterlimit:4;stroke-dasharray:none;stroke-opacity:1"
       id="path1098-7"
       sodipodi:sides="3"
       sodipodi:cx="-876.51031"
       sodipodi:cy="99.921898"
       sodipodi:r1="76.979637"
       sodipodi:r2="38.489815"
       sodipodi:arg1="0.52359878"
       sodipodi:arg2="1.5707963"
       inkscape:flatsided="true"
       inkscape:rounded="0.19"
       inkscape:randomized="0"
       d="m -809.84399,138.41172 c -12.6666,21.93919 -120.66605,21.93919 -133.33265,0 -12.6666,-21.9392 41.33312,-115.469459 66.66633,-115.469459 25.3332,0 79.33292,93.530259 66.66632,115.469459 z"
       inkscape:transform-center-y="11.017709"
       transform="scale(1,-1)" />
    <path
       sodipodi:type="star"
       style="opacity:1;fill:#78c9ea;fill-opacity:1;stroke:#142a35;stroke-width:4.00859976;stroke-linecap:square;stroke-miterlimit:4;stroke-dasharray:none;stroke-opacity:1"
       id="path1098-6-3"
       sodipodi:sides="3"
       sodipodi:cx="-731.59424"
       sodipodi:cy="99.921898"
       sodipodi:r1="76.979637"
       sodipodi:r2="38.489815"
       sodipodi:arg1="0.52359878"
       sodipodi:arg2="1.5707963"
       inkscape:flatsided="true"
       inkscape:rounded="0.19"
       inkscape:randomized="0"
       d="m -664.92792,138.41172 c -12.6666,21.93919 -120.66604,21.93919 -133.33264,0 -12.6666,-21.9392 41.33312,-115.469459 66.66632,-115.469459 25.3332,0 79.33292,93.530259 66.66632,115.469459 z"
       inkscape:transform-center-y="11.017709"
       transform="scale(1,-1)" />
    <path
       sodipodi:type="star"
       style="opacity:1;fill:#78c9ea;fill-opacity:1;stroke:#142a35;stroke-width:4.00859976;stroke-linecap:square;stroke-miterlimit:4;stroke-dasharray:none;stroke-opacity:1"
       id="path1098-1-8"
       sodipodi:sides="3"
       sodipodi:cx="-586.67816"
       sodipodi:cy="99.921898"
       sodipodi:r1="76.979637"
       sodipodi:r2="38.489815"
       sodipodi:arg1="0.52359878"
       sodipodi:arg2="1.5707963"
       inkscape:flatsided="true"
       inkscape:rounded="0.19"
       inkscape:randomized="0"
       d="m -520.01184,138.41172 c -12.6666,21.93919 -120.66604,21.93919 -133.33264,0 -12.6666,-21.9392 41.33312,-115.469459 66.66632,-115.469459 25.3332,0 79.33292,93.530259 66.66632,115.469459 z"
       inkscape:transform-center-y="11.017709"
       transform="scale(1,-1)" />
    <path
       sodipodi:type="star"
       style="opacity:1;fill:#78c9ea;fill-opacity:1;stroke:#142a35;stroke-width:4.00859976;stroke-linecap:square;stroke-miterlimit:4;stroke-dasharray:none;stroke-opacity:1"
       id="path1098-2-7"
       sodipodi:sides="3"
       sodipodi:cx="-441.76221"
       sodipodi:cy="99.921898"
       sodipodi:r1="76.979637"
       sodipodi:r2="38.489815"
       sodipodi:arg1="0.52359878"
       sodipodi:arg2="1.5707963"
       inkscape:flatsided="true"
       inkscape:rounded="0.19"
       inkscape:randomized="0"
       d="m -375.09589,138.41172 c -12.6666,21.93919 -120.66604,21.93919 -133.33264,0 -12.6666,-21.9392 41.33312,-115.469459 66.66632,-115.469459 25.33321,0 79.33293,93.530259 66.66632,115.469459 z"
       inkscape:transform-center-y="11.017709"
       transform="scale(1,-1)" />
    <path
       sodipodi:type="star"
       style="opacity:1;fill:#78c9ea;fill-opacity:1;stroke:#142a35;stroke-width:0.27000001;stroke-linecap:square;stroke-miterlimit:4;stroke-dasharray:none;stroke-opacity:1"
       id="path1156"
       sodipodi:sides="27"
       sodipodi:cx="-876.034"
       sodipodi:cy="-8.4178035"
       sodipodi:r1="9.2993488"
       sodipodi:r2="8.9202461"
       sodipodi:arg1="1.3546161"
       sodipodi:arg2="1.4709714"
       inkscape:flatsided="true"
       inkscape:rounded="-10"
       inkscape:randomized="0"
       d="m -874.03928,0.66509264 c 21.0892,-4.63144184 -23.73725,-0.14172113 -2.14843,0.21518192 21.58882,0.35690304 -23.06473,-5.61208716 -2.14014,-0.28607988 20.92458,5.32600722 -21.14878,-10.77990368 -2.01648,-0.77191906 19.1323,10.00798498 -18.09269,-15.36657362 -1.78411,-1.21614382 16.30858,14.1504292 -14.06122,-19.1248268 -1.45555,-1.5948061 12.60567,17.5300213 -9.27172,-21.8520567 -1.04854,-1.8874918 8.22319,19.9645641 -3.98236,-23.4012359 -0.58498,-2.0784224 3.39738,21.3228135 1.52168,-23.6888485 -0.0899,-2.1573048 -1.61157,21.5315433 6.94369,-22.6993887 0.41004,-2.1198857 -6.53366,20.5795019 11.99136,-20.4862 0.88786,-1.968185 -11.1035,18.5180157 16.39257,-17.168593 1.31782,-1.710376 -15.07475,15.45821695 19.91006,-12.925425 1.67674,-1.360362 -18.23332,11.565062 22.35419,-7.985443 1.94527,-0.937011 -20.40893,7.048432 23.5932,-2.614963 2.10892,-0.463144 -21.48428,2.151819 23.56029,2.896489 2.15888,0.03569 -21.40141,-2.860799 22.25724,8.2517916 2.09246,0.532601 -20.16479,-7.71919 19.7543,13.1622372 1.91323,1.000799 -17.84108,-12.161439 16.1864,17.363103 1.63086,1.415043 -14.55555,-15.948061 11.74589,20.6279199 1.26056,1.753002 -10.48532,-18.874919 6.67215,22.7806804 0.82232,1.996456 -5.84983,-20.784224 1.23872,23.705329 0.33974,2.1322814 -0.89898,-21.5730474 -4.2615,23.3520166 -0.16116,2.1531543 4.10034,-21.1988617 -9.53197,21.7397903 -0.65336,2.0579503 8.8786,-19.68184 -14.28858,18.955567 -1.11035,1.8518015 13.17823,-17.1037655 -18.27489,15.1494445 -1.50748,1.5458217 16.76741,-13.6036222 -21.27598,10.5266108 -1.82333,1.15650622 19.45265,-9.37010462 -23.13009,5.33628508 -2.04089,0.70484322 z"
       inkscape:transform-center-y="0.027819521" />
    <path
       sodipodi:type="star"
       style="opacity:1;fill:#78c9ea;fill-opacity:1;stroke:#142a35;stroke-width:0.27000001;stroke-linecap:square;stroke-miterlimit:4;stroke-dasharray:none;stroke-opacity:1"
       id="path1156-7"
       sodipodi:sides="27"
       sodipodi:cx="-731.28381"
       sodipodi:cy="-8.4178035"
       sodipodi:r1="9.2993488"
       sodipodi:r2="8.9202461"
       sodipodi:arg1="1.3546161"
       sodipodi:arg2="1.4709714"
       inkscape:flatsided="true"
       inkscape:rounded="-10"
       inkscape:randomized="0"
       d="m -729.2891,0.66509264 c 21.0892,-4.63144184 -23.73725,-0.14172113 -2.14843,0.21518192 21.58882,0.35690304 -23.06472,-5.61208716 -2.14014,-0.28607988 20.92458,5.32600722 -21.14877,-10.77990368 -2.01648,-0.77191906 19.1323,10.00798498 -18.09269,-15.36657362 -1.78411,-1.21614382 16.30859,14.1504292 -14.06122,-19.1248268 -1.45555,-1.5948061 12.60567,17.5300213 -9.27171,-21.8520567 -1.04853,-1.8874918 8.22318,19.9645641 -3.98236,-23.4012359 -0.58499,-2.0784224 3.39738,21.3228135 1.52168,-23.6888485 -0.0899,-2.1573048 -1.61158,21.5315433 6.94368,-22.6993887 0.41003,-2.1198857 -6.53365,20.5795019 11.99136,-20.4862 0.88786,-1.968185 -11.1035,18.5180157 16.39257,-17.168593 1.31782,-1.710376 -15.07474,15.45821695 19.91006,-12.925425 1.67675,-1.360362 -18.23332,11.565062 22.35418,-7.985443 1.94526,-0.937011 -20.40892,7.048432 23.5932,-2.614963 2.10892,-0.463144 -21.48428,2.151819 23.56029,2.896489 2.15888,0.03569 -21.40141,-2.860799 22.25725,8.2517916 2.09246,0.532601 -20.16479,-7.71919 19.75431,13.1622372 1.91323,1.000799 -17.84107,-12.161439 16.1864,17.363103 1.63086,1.415043 -14.55555,-15.948061 11.74589,20.6279199 1.26057,1.753002 -10.48533,-18.874919 6.67215,22.7806804 0.82231,1.996456 -5.84983,-20.784224 1.23872,23.705329 0.33974,2.1322814 -0.89898,-21.5730474 -4.2615,23.3520166 -0.16116,2.1531543 4.10034,-21.1988617 -9.53197,21.7397903 -0.65336,2.0579503 8.87861,-19.68184 -14.28858,18.955567 -1.11035,1.8518015 13.17823,-17.1037655 -18.27488,15.1494445 -1.50748,1.5458217 16.76741,-13.6036222 -21.27598,10.5266108 -1.82333,1.15650622 19.45265,-9.37010462 -23.13009,5.33628508 -2.04089,0.70484322 z"
       inkscape:transform-center-y="0.027819521" />
    <path
       sodipodi:type="star"
       style="opacity:1;fill:#78c9ea;fill-opacity:1;stroke:#142a35;stroke-width:0.27000001;stroke-linecap:square;stroke-miterlimit:4;stroke-dasharray:none;stroke-opacity:1"
       id="path1156-4"
       sodipodi:sides="27"
       sodipodi:cx="-586.53369"
       sodipodi:cy="-8.4178035"
       sodipodi:r1="9.2993488"
       sodipodi:r2="8.9202461"
       sodipodi:arg1="1.3546161"
       sodipodi:arg2="1.4709714"
       inkscape:flatsided="true"
       inkscape:rounded="-10"
       inkscape:randomized="0"
       d="m -584.53898,0.66509264 c 21.0892,-4.63144184 -23.73725,-0.14172113 -2.14843,0.21518192 21.58882,0.35690304 -23.06472,-5.61208716 -2.14014,-0.28607988 20.92459,5.32600722 -21.14877,-10.77990368 -2.01648,-0.77191906 19.1323,10.00798498 -18.09269,-15.36657362 -1.7841,-1.21614382 16.30858,14.1504292 -14.06123,-19.1248268 -1.45556,-1.5948061 12.60567,17.5300213 -9.27171,-21.8520567 -1.04853,-1.8874918 8.22318,19.9645641 -3.98236,-23.4012359 -0.58498,-2.0784224 3.39738,21.3228135 1.52168,-23.6888485 -0.0899,-2.1573048 -1.61158,21.5315433 6.94369,-22.6993887 0.41003,-2.1198857 -6.53365,20.5795019 11.99136,-20.4862 0.88786,-1.968185 -11.10349,18.5180157 16.39258,-17.168593 1.31783,-1.710376 -15.07475,15.45821695 19.91006,-12.925425 1.67674,-1.360362 -18.23332,11.565062 22.35419,-7.985443 1.94526,-0.937011 -20.40892,7.048432 23.5932,-2.614963 2.10892,-0.463144 -21.48428,2.151819 23.5603,2.896489 2.15888,0.03569 -21.40141,-2.860799 22.25725,8.2517916 2.09246,0.532601 -20.16478,-7.71919 19.75431,13.1622372 1.91323,1.000799 -17.84107,-12.161439 16.18641,17.363103 1.63086,1.415043 -14.55554,-15.948061 11.74589,20.6279199 1.26057,1.753002 -10.48533,-18.874919 6.67215,22.7806804 0.82232,1.996456 -5.84984,-20.784224 1.23871,23.705329 0.33973,2.1322814 -0.89898,-21.5730474 -4.26149,23.3520166 -0.16115,2.1531543 4.10034,-21.1988617 -9.53198,21.7397903 -0.65337,2.0579503 8.87861,-19.68184 -14.28858,18.955567 -1.11035,1.8518015 13.17823,-17.1037655 -18.27488,15.1494445 -1.50747,1.5458217 16.7674,-13.6036222 -21.27599,10.5266108 -1.82334,1.15650622 19.45266,-9.37010462 -23.13009,5.33628508 -2.04089,0.70484322 z"
       inkscape:transform-center-y="0.027819521" />
    <path
       sodipodi:type="star"
       style="opacity:1;fill:#78c9ea;fill-opacity:1;stroke:#142a35;stroke-width:0.27000001;stroke-linecap:square;stroke-miterlimit:4;stroke-dasharray:none;stroke-opacity:1"
       id="path1156-48"
       sodipodi:sides="27"
       sodipodi:cx="-804.9325"
       sodipodi:cy="-86.808227"
       sodipodi:r1="9.2993488"
       sodipodi:r2="8.9202461"
       sodipodi:arg1="1.3546161"
       sodipodi:arg2="1.4709714"
       inkscape:flatsided="true"
       inkscape:rounded="-10"
       inkscape:randomized="0"
       d="m -802.93778,-77.725331 c 21.0892,-4.631442 -23.73725,-0.141721 -2.14843,0.215182 21.58882,0.356903 -23.06472,-5.612087 -2.14014,-0.28608 20.92458,5.326007 -21.14878,-10.779904 -2.01648,-0.771919 19.1323,10.007985 -18.09269,-15.366574 -1.78411,-1.216144 16.30859,14.15043 -14.06122,-19.124827 -1.45555,-1.594806 12.60567,17.530021 -9.27171,-21.852052 -1.04853,-1.887492 8.22318,19.964565 -3.98237,-23.40124 -0.58499,-2.078422 3.39738,21.322813 1.52168,-23.688848 -0.0899,-2.157305 -1.61158,21.531543 6.94368,-22.699393 0.41003,-2.119886 -6.53365,20.579502 11.99136,-20.486197 0.88786,-1.968184 -11.1035,18.518015 16.39257,-17.168593 1.31782,-1.710377 -15.07475,15.458217 19.91006,-12.925426 1.67674,-1.360362 -18.23331,11.565062 22.35419,-7.985444 1.94527,-0.937011 -20.40892,7.048433 23.5932,-2.614963 2.10892,-0.463144 -21.48428,2.15182 23.56029,2.896489 2.15888,0.03569 -21.40141,-2.860799 22.25725,8.251791 2.09246,0.5326 -20.16479,-7.71919 19.7543,13.162237 1.91323,1.000799 -17.84108,-12.161439 16.1864,17.363103 1.63086,1.415043 -14.55555,-15.948062 11.74589,20.62792 1.26056,1.753002 -10.48532,-18.874914 6.67216,22.780681 0.82232,1.996456 -5.84983,-20.78422 1.23872,23.705329 0.33974,2.132282 -0.89898,-21.573052 -4.2615,23.352016 -0.16116,2.153154 4.10034,-21.198866 -9.53197,21.739791 -0.65336,2.05795 8.87861,-19.681836 -14.28858,18.955567 -1.11035,1.851802 13.17823,-17.103766 -18.27489,15.149444 -1.50748,1.545821 16.76741,-13.603622 -21.27598,10.526611 -1.82333,1.156507 19.45265,-9.370105 -23.13009,5.336285 -2.04089,0.704843 z"
       inkscape:transform-center-y="0.027819521" />
    <path
       sodipodi:type="star"
       style="opacity:1;fill:#78c9ea;fill-opacity:1;stroke:#142a35;stroke-width:0.27000001;stroke-linecap:square;stroke-miterlimit:4;stroke-dasharray:none;stroke-opacity:1"
       id="path1156-7-2"
       sodipodi:sides="27"
       sodipodi:cx="-660.18231"
       sodipodi:cy="-86.808227"
       sodipodi:r1="9.2993488"
       sodipodi:r2="8.9202461"
       sodipodi:arg1="1.3546161"
       sodipodi:arg2="1.4709714"
       inkscape:flatsided="true"
       inkscape:rounded="-10"
       inkscape:randomized="0"
       d="m -658.1876,-77.725331 c 21.0892,-4.631442 -23.73725,-0.141721 -2.14843,0.215182 21.58882,0.356903 -23.06472,-5.612087 -2.14014,-0.28608 20.92459,5.326007 -21.14877,-10.779904 -2.01648,-0.771919 19.1323,10.007985 -18.09269,-15.366574 -1.7841,-1.216144 16.30858,14.15043 -14.06123,-19.124827 -1.45556,-1.594806 12.60567,17.530021 -9.27171,-21.852052 -1.04853,-1.887492 8.22318,19.964565 -3.98236,-23.40124 -0.58498,-2.078422 3.39737,21.322813 1.52168,-23.688848 -0.0899,-2.157305 -1.61158,21.531543 6.94369,-22.699393 0.41003,-2.119886 -6.53365,20.579502 11.99136,-20.486197 0.88786,-1.968184 -11.10349,18.518015 16.39258,-17.168593 1.31783,-1.710377 -15.07475,15.458217 19.91005,-12.925426 1.67674,-1.360362 -18.23332,11.565062 22.35419,-7.985444 1.94526,-0.937011 -20.40892,7.048433 23.5932,-2.614963 2.10892,-0.463144 -21.48428,2.15182 23.56029,2.896489 2.15888,0.03569 -21.40141,-2.860799 22.25725,8.251791 2.09246,0.5326 -20.16478,-7.71919 19.75431,13.162237 1.91323,1.000799 -17.84107,-12.161439 16.18641,17.363103 1.63086,1.415043 -14.55555,-15.948062 11.74589,20.62792 1.26057,1.753002 -10.48533,-18.874914 6.67215,22.780681 0.82232,1.996456 -5.84984,-20.78422 1.23871,23.705329 0.33973,2.132282 -0.89898,-21.573052 -4.26149,23.352016 -0.16115,2.153154 4.10034,-21.198866 -9.53198,21.739791 -0.65337,2.05795 8.87861,-19.681836 -14.28858,18.955567 -1.11035,1.851802 13.17823,-17.103766 -18.27488,15.149444 -1.50747,1.545821 16.7674,-13.603622 -21.27599,10.526611 -1.82334,1.156507 19.45266,-9.370105 -23.13009,5.336285 -2.04089,0.704843 z"
       inkscape:transform-center-y="0.027819521" />
    <path
       sodipodi:type="star"
       style="opacity:1;fill:#78c9ea;fill-opacity:1;stroke:#142a35;stroke-width:0.27000001;stroke-linecap:square;stroke-miterlimit:4;stroke-dasharray:none;stroke-opacity:1"
       id="path1156-4-1"
       sodipodi:sides="27"
       sodipodi:cx="-515.43225"
       sodipodi:cy="-86.808227"
       sodipodi:r1="9.2993488"
       sodipodi:r2="8.9202461"
       sodipodi:arg1="1.3546161"
       sodipodi:arg2="1.4709714"
       inkscape:flatsided="true"
       inkscape:rounded="-10"
       inkscape:randomized="0"
       d="m -513.43754,-77.725331 c 21.0892,-4.631442 -23.73725,-0.141721 -2.14843,0.215182 21.58882,0.356903 -23.06472,-5.612087 -2.14014,-0.28608 20.92459,5.326007 -21.14877,-10.779904 -2.01648,-0.771919 19.1323,10.007985 -18.09269,-15.366574 -1.7841,-1.216144 16.30858,14.15043 -14.06123,-19.124827 -1.45556,-1.594806 12.60567,17.530021 -9.27171,-21.852052 -1.04853,-1.887492 8.22318,19.964565 -3.98236,-23.40124 -0.58498,-2.078422 3.39738,21.322813 1.52168,-23.688848 -0.0899,-2.157305 -1.61158,21.531543 6.94369,-22.699393 0.41003,-2.119886 -6.53365,20.579502 11.99136,-20.486197 0.88786,-1.968184 -11.10349,18.518015 16.39258,-17.168593 1.31783,-1.710377 -15.07475,15.458217 19.91006,-12.925426 1.67674,-1.360362 -18.23332,11.565062 22.35419,-7.985444 1.94526,-0.937011 -20.40892,7.048433 23.5932,-2.614963 2.10892,-0.463144 -21.48428,2.15182 23.5603,2.896489 2.15889,0.03569 -21.40142,-2.860799 22.25724,8.251791 2.09245,0.5326 -20.16478,-7.71919 19.75431,13.162237 1.91323,1.000799 -17.84107,-12.161439 16.18641,17.363103 1.63086,1.415043 -14.55554,-15.948062 11.74589,20.62792 1.26057,1.753002 -10.48532,-18.874914 6.67215,22.780681 0.82232,1.996456 -5.84984,-20.78422 1.23871,23.705329 0.33973,2.132282 -0.89897,-21.573052 -4.26149,23.352016 -0.16115,2.153154 4.10034,-21.198866 -9.53198,21.739791 -0.65337,2.05795 8.87861,-19.681836 -14.28858,18.955567 -1.11035,1.851802 13.17823,-17.103766 -18.27488,15.149444 -1.50747,1.545821 16.76741,-13.603622 -21.27599,10.526611 -1.82334,1.156507 19.45266,-9.370105 -23.13009,5.336285 -2.04089,0.704843 z"
       inkscape:transform-center-y="0.027819521" />
  </g>
</svg>
