<?xml version="1.0" encoding="UTF-8" standalone="no"?>
<!-- Created with Inkscape (http://www.inkscape.org/) -->

<svg
   xmlns:dc="http://purl.org/dc/elements/1.1/"
   xmlns:cc="http://creativecommons.org/ns#"
   xmlns:rdf="http://www.w3.org/1999/02/22-rdf-syntax-ns#"
   xmlns:svg="http://www.w3.org/2000/svg"
   xmlns="http://www.w3.org/2000/svg"
   xmlns:sodipodi="http://sodipodi.sourceforge.net/DTD/sodipodi-0.dtd"
   xmlns:inkscape="http://www.inkscape.org/namespaces/inkscape"
   width="1920"
   height="1080"
   viewBox="0 0 457.2 257.175"
   version="1.1"
   id="svg8"
   inkscape:version="0.92.3 (2405546, 2018-03-11)"
   sodipodi:docname="dtbLandingPageAlt.svg"
   inkscape:export-filename="C:\Users\Donald T Bradfield\Pictures\vectors\dtbLandingPageTESTTTT.png"
   inkscape:export-xdpi="96"
   inkscape:export-ydpi="96">
  <defs
     id="defs2" />
  <sodipodi:namedview
     id="base"
     pagecolor="#ffffff"
     bordercolor="#666666"
     borderopacity="1.0"
     inkscape:pageopacity="0.0"
     inkscape:pageshadow="2"
     inkscape:zoom="0.35"
     inkscape:cx="20.632919"
     inkscape:cy="268.64364"
     inkscape:document-units="mm"
     inkscape:current-layer="layer1"
     showgrid="false"
     showborder="true"
     inkscape:window-width="1920"
     inkscape:window-height="1001"
     inkscape:window-x="-9"
     inkscape:window-y="-9"
     inkscape:window-maximized="1"
     units="px"
     fit-margin-top="0"
     fit-margin-left="0"
     fit-margin-right="0"
     fit-margin-bottom="0"
     inkscape:snap-global="false" />
  <metadata
     id="metadata5">
    <rdf:RDF>
      <cc:Work
         rdf:about="">
        <dc:format>image/svg+xml</dc:format>
        <dc:type
           rdf:resource="http://purl.org/dc/dcmitype/StillImage" />
        <dc:title />
      </cc:Work>
    </rdf:RDF>
  </metadata>
  <g
     inkscape:label="Layer 1"
     inkscape:groupmode="layer"
     id="layer1"
     transform="translate(960.73844,237.62998)">
    <rect
       style="opacity:1;fill:#9d9b8e;fill-opacity:1;stroke:#78c9ea;stroke-width:21.4308;stroke-linecap:square;stroke-miterlimit:4;stroke-dasharray:none;stroke-opacity:1"
       id="rect821-7"
       width="752.47504"
       height="242.56238"
       x="-1085.5029"
       y="-564.58319"
       transform="rotate(-30)" />
    <rect
       style="opacity:1;fill:#142a35;fill-opacity:1;stroke:none;stroke-width:21.43124962;stroke-linecap:square;stroke-miterlimit:4;stroke-dasharray:none;stroke-opacity:1"
       id="rect844"
       width="108.24416"
       height="51.476109"
       x="-1111.3181"
       y="-266.70065" />
    <path
       style="opacity:1;fill:#f98a2c;fill-opacity:1;stroke:none;stroke-width:21.43124962;stroke-linecap:square;stroke-miterlimit:4;stroke-dasharray:none;stroke-opacity:1"
       d="m -1092.2055,-185.03455 -64.2249,-111.24072 159.56995,-92.1278 159.57003,-92.12781 64.22487,111.24072 64.22486,111.24073 -159.57004,92.12781 -159.56997,92.127803 z"
       id="path848"
       inkscape:connector-curvature="0" />
    <path
       style="opacity:1;fill:#f98a2c;fill-opacity:1;stroke:none;stroke-width:21.43124962;stroke-linecap:square;stroke-miterlimit:4;stroke-dasharray:none;stroke-opacity:1"
       d="m -658.94773,172.77064 -64.2249,-111.240729 159.56995,-92.127807 159.57003,-92.127814 64.22486,111.240724 64.22486,111.240737 -159.57004,92.127819 -159.56996,92.12779 z"
       id="path848-1"
       inkscape:connector-curvature="0"
       inkscape:export-xdpi="96"
       inkscape:export-ydpi="96" />
    <path
       style="opacity:1;fill:#d5ecd7;fill-opacity:0;stroke:none;stroke-width:89.99810791;stroke-linecap:square;stroke-miterlimit:4;stroke-dasharray:none;stroke-opacity:1"
       d="m -803.72925,1642.7752 c -127.35007,-220.3766 -230.77465,-401.5216 -229.83245,-402.5444 1.9107,-2.0742 2650.3412,-1531.21418 2653.3084,-1531.95634 1.0327,-0.25832 105.8387,179.53033 232.9022,399.53033 207.9348,360.02223 230.5425,400.36331 226.202,403.63508 -2.6526,1.99929 -597.5737,345.82472 -1322.0469,764.05653 -724.473191,418.2318 -1319.87082,762.1184 -1323.10582,764.1924 -5.64214,3.6173 -15.31817,-12.5583 -237.42743,-396.9136 z M 966.72286,1070.6364 C 1537.9371,740.97724 2005.6154,471.01559 2006.008,470.72162 c 0.7283,-0.54549 -395.0325,-686.75938 -397.4963,-689.22326 -1.4876,-1.48751 -2075.053,1194.67023 -2081.48643,1200.72703 -3.36546,3.16842 26.26406,56.18441 191.0294,341.80761 107.257,185.9316 196.885511,341.0364 199.174454,344.6773 2.821086,4.4873 5.250686,5.7639 7.542029,3.9631 1.859171,-1.4612 470.737427,-272.3778 1041.951707,-602.037 z"
       id="path826"
       inkscape:connector-curvature="0"
       transform="matrix(0.238125,0,0,0.238125,-960.73844,-237.62998)" />
    <rect
       style="opacity:1;fill:#d5ecd7;fill-opacity:1;stroke:#78c9ea;stroke-width:9.0486;stroke-linecap:square;stroke-miterlimit:4;stroke-dasharray:none;stroke-opacity:1"
       id="rect821"
       width="564.01611"
       height="180.29465"
       x="-924.17975"
       y="-535.35931"
       transform="rotate(-30)" />
    <rect
       style="opacity:1;fill:#142a35;fill-opacity:1;stroke:#78c9ea;stroke-width:9.04863644;stroke-linecap:square;stroke-miterlimit:4;stroke-dasharray:none;stroke-opacity:1"
       id="rect821-8"
       width="334.83041"
       height="106.78745"
       x="-728.53326"
       y="-497.55725"
       transform="matrix(0.86701566,-0.49828088,0.50172109,0.86502945,0,0)" />
    <rect
       style="opacity:1;fill:#f98a2c;fill-opacity:1;stroke:#78c9ea;stroke-width:4.00860023;stroke-linecap:square;stroke-miterlimit:4;stroke-dasharray:none;stroke-opacity:1"
       id="rect1020"
       width="172.13036"
       height="55.789284"
       x="-588.14954"
       y="-473.53775"
       ry="0"
       transform="rotate(-30)" />
  </g>
</svg>
